<svg width="44" height="44" viewBox="0 0 44 44" fill="none" xmlns="http://www.w3.org/2000/svg">
<g clip-path="url(#clip0_1139_44484)">
<path d="M35.9811 22.2744C35.9811 21.0726 35.8836 20.1956 35.6725 19.2862H21.9495V24.7104H30.0046C29.8423 26.0584 28.9653 28.0884 27.0164 29.4525L26.9891 29.6341L31.3281 32.9955L31.6287 33.0255C34.3895 30.4757 35.9811 26.7242 35.9811 22.2744Z" fill="#4285F4"/>
<path d="M21.9496 36.5659C25.8959 36.5659 29.2089 35.2666 31.6288 33.0255L27.0165 29.4526C25.7823 30.3133 24.1257 30.9142 21.9496 30.9142C18.0844 30.9142 14.8039 28.3645 13.6345 24.8404L13.4631 24.8549L8.95134 28.3466L8.89233 28.5106C11.2959 33.2853 16.2329 36.5659 21.9496 36.5659Z" fill="#34A853"/>
<path d="M13.6344 24.8404C13.3259 23.931 13.1473 22.9565 13.1473 21.9496C13.1473 20.9427 13.3259 19.9683 13.6182 19.0588L13.61 18.8651L9.04175 15.3174L8.89228 15.3885C7.90167 17.3698 7.33325 19.5948 7.33325 21.9496C7.33325 24.3045 7.90167 26.5293 8.89228 28.5107L13.6344 24.8404Z" fill="#FBBC05"/>
<path d="M21.9496 12.9849C24.6942 12.9849 26.5455 14.1704 27.6012 15.1612L31.7262 11.1335C29.1928 8.77871 25.8959 7.33331 21.9496 7.33331C16.2329 7.33331 11.2959 10.6138 8.89233 15.3884L13.6182 19.0588C14.8039 15.5347 18.0844 12.9849 21.9496 12.9849Z" fill="#EB4335"/>
</g>
<defs>
<clipPath id="clip0_1139_44484">
<rect width="28.6616" height="29.3333" fill="white" transform="translate(7.33325 7.33331)"/>
</clipPath>
</defs>
</svg>
